<?xml version="1.0" standalone="no"?>
<!DOCTYPE svg PUBLIC "-//W3C//DTD SVG 20010904//EN"
 "http://www.w3.org/TR/2001/REC-SVG-20010904/DTD/svg10.dtd">
<svg version="1.0" xmlns="http://www.w3.org/2000/svg"
 width="128.000000pt" height="128.000000pt" viewBox="0 0 128.000000 128.000000"
 preserveAspectRatio="xMidYMid meet">

<g transform="translate(0.000000,128.000000) scale(0.100000,-0.100000)"
fill="#000000" stroke="none">
<path d="M625 1198 c-18 -43 -19 -76 -5 -114 6 -15 9 -29 7 -31 -3 -2 -26 8
-52 22 -63 33 -106 32 -185 -6 -43 -21 -87 -33 -129 -37 -63 -5 -63 -5 -41
-22 l23 -17 -103 -269 c-56 -148 -107 -274 -112 -280 -6 -8 4 -22 29 -43 120
-99 274 -99 381 2 28 28 45 56 24 43 -4 -2 -17 21 -29 52 -88 232 -173 467
-173 477 0 8 18 12 53 12 29 0 77 6 105 13 70 16 101 8 109 -30 5 -26 10 -30
39 -30 l34 0 0 -385 c0 -379 0 -384 -21 -404 -29 -27 -101 -41 -207 -41 -91 0
-112 -8 -112 -42 0 -17 21 -18 385 -18 364 0 385 1 385 18 0 34 -21 42 -107
42 -100 0 -174 15 -208 42 l-25 20 2 381 3 382 33 3 c24 2 32 8 32 22 0 11 11
27 26 36 22 15 32 15 82 4 31 -7 81 -13 110 -13 28 0 52 -3 52 -6 0 -8 -19
-60 -94 -256 -98 -255 -108 -280 -118 -286 -13 -8 44 -55 106 -86 68 -34 163
-35 227 -3 83 43 130 89 101 102 -4 1 -29 59 -54 128 -26 69 -70 185 -98 259
-27 74 -50 139 -50 146 0 6 12 18 27 26 26 14 24 14 -39 20 -43 3 -85 15 -124
35 -76 38 -152 40 -207 5 -21 -13 -41 -21 -44 -18 -3 3 0 21 7 41 8 25 8 45 1
73 -19 66 -28 73 -46 31z m-285 -490 c49 -135 90 -251 90 -257 0 -8 -56 -11
-190 -11 -104 0 -190 2 -190 5 0 2 27 75 61 162 33 87 77 201 97 254 20 54 38
96 39 95 1 -1 43 -112 93 -248z m850 -149 c4 -14 12 -35 18 -45 5 -10 12 -31
16 -47 l6 -27 -190 0 c-132 0 -190 3 -190 11 0 10 141 383 177 469 l15 35 70
-185 c38 -102 73 -197 78 -211z"/>
</g>
</svg>
